<svg xmlns="http://www.w3.org/2000/svg" viewBox="0 0 640 480" role="img" aria-labelledby="title desc">
  <title id="title">Graph neural network illustration</title>
  <desc id="desc">Stylized graph nodes and message passing flow highlighting sparsification.</desc>
  <defs>
    <linearGradient id="bg" x1="0" x2="1" y1="0" y2="1">
      <stop offset="0" stop-color="#0f172a"/>
      <stop offset="1" stop-color="#1e3a8a"/>
    </linearGradient>
    <linearGradient id="edge" x1="0" x2="1" y1="0" y2="1">
      <stop offset="0" stop-color="#38bdf8"/>
      <stop offset="1" stop-color="#2dd4bf"/>
    </linearGradient>
    <linearGradient id="edge-muted" x1="0" x2="1" y1="0" y2="1">
      <stop offset="0" stop-color="#94a3b8" stop-opacity="0.4"/>
      <stop offset="1" stop-color="#94a3b8" stop-opacity="0.05"/>
    </linearGradient>
    <filter id="glow" width="200%" height="200%" x="-50%" y="-50%">
      <feGaussianBlur stdDeviation="6" result="blur"/>
      <feMerge>
        <feMergeNode in="blur"/>
        <feMergeNode in="SourceGraphic"/>
      </feMerge>
    </filter>
  </defs>
  <rect width="640" height="480" fill="url(#bg)"/>
  <g stroke-linecap="round" stroke-width="6" fill="none">
    <path d="M160 320L240 160" stroke="url(#edge-muted)"/>
    <path d="M120 180L300 240" stroke="url(#edge-muted)"/>
    <path d="M200 360L360 360" stroke="url(#edge-muted)"/>
    <path d="M420 160L520 300" stroke="url(#edge-muted)"/>
    <path d="M300 120L480 200" stroke="url(#edge-muted)"/>
    <path d="M240 160L360 240" stroke="url(#edge)"/>
    <path d="M360 240L480 320" stroke="url(#edge)"/>
    <path d="M240 160L480 320" stroke="url(#edge)"/>
  </g>
  <g filter="url(#glow)">
    <circle cx="120" cy="180" r="22" fill="#475569"/>
    <circle cx="160" cy="320" r="28" fill="#475569"/>
    <circle cx="200" cy="360" r="18" fill="#475569"/>
    <circle cx="300" cy="120" r="24" fill="#475569"/>
    <circle cx="520" cy="300" r="32" fill="#475569"/>
  </g>
  <g>
    <circle cx="240" cy="160" r="34" fill="#cbd5f5" stroke="#38bdf8" stroke-width="4"/>
    <circle cx="360" cy="240" r="42" fill="#e0f2fe" stroke="#2dd4bf" stroke-width="4"/>
    <circle cx="480" cy="320" r="38" fill="#ccfbf1" stroke="#5eead4" stroke-width="4"/>
  </g>
</svg>
